<svg width="40" height="40" viewBox="0 0 40 40" fill="none" xmlns="http://www.w3.org/2000/svg">
<path d="M19.5033 33.2366C19.7211 33.2366 19.9445 33.1877 20.1733 33.0899C20.4022 32.9922 20.5872 32.8727 20.7283 32.7316L33.7217 19.7366C34.1406 19.3177 34.4639 18.8899 34.6917 18.4533C34.9184 18.0144 35.0317 17.5333 35.0317 17.0099C35.0317 16.4799 34.9184 15.9655 34.6917 15.4666C34.4639 14.9666 34.1406 14.511 33.7217 14.0999L27.4717 7.84993C27.0595 7.43104 26.6356 7.12382 26.2 6.92826C25.7656 6.73271 25.2833 6.63493 24.7534 6.63493C24.23 6.63493 23.7439 6.73271 23.295 6.92826C22.8461 7.12382 22.4233 7.43048 22.0267 7.84826L21.0441 8.83083C20.784 9.09093 20.7837 9.51255 21.0435 9.773L23.6567 12.3933C23.9878 12.7188 24.235 13.0888 24.3983 13.5033C24.5606 13.9177 24.6417 14.3383 24.6417 14.7649C24.6417 15.6327 24.3578 16.3505 23.79 16.9183C23.2222 17.486 22.505 17.7694 21.6383 17.7683C21.2106 17.7683 20.7934 17.7033 20.3867 17.5733C19.98 17.4433 19.6139 17.2155 19.2883 16.8899L16.5714 14.1829C16.3109 13.9234 15.8895 13.9237 15.6295 14.1837L8.90335 20.9083C8.73557 21.0772 8.60946 21.2688 8.52502 21.4833C8.44057 21.6977 8.39835 21.9144 8.39835 22.1333C8.39835 22.5266 8.52446 22.8505 8.77668 23.1049C9.02779 23.3605 9.35002 23.4883 9.74335 23.4883C9.96113 23.4883 10.1845 23.4394 10.4134 23.3416C10.6422 23.2427 10.8272 23.1227 10.9683 22.9816L15.7786 18.1713C16.039 17.911 16.4611 17.911 16.7214 18.1713L16.9591 18.409C17.2192 18.6691 17.2194 19.0909 16.9595 19.3513L12.1567 24.1633C11.9878 24.331 11.8611 24.5222 11.7767 24.7366C11.6933 24.9522 11.6517 25.1688 11.6517 25.3866C11.6517 25.7588 11.7828 26.076 12.045 26.3383C12.3072 26.6005 12.6245 26.7322 12.9967 26.7333C13.2145 26.7333 13.4378 26.6838 13.6667 26.5849C13.8956 26.486 14.0806 26.3666 14.2217 26.2266L19.4173 21.0402C19.6776 20.7803 20.0991 20.7804 20.3593 21.0403L20.5966 21.2772C20.8572 21.5374 20.8575 21.9595 20.5973 22.22L15.41 27.4149C15.2622 27.556 15.1411 27.741 15.0467 27.9699C14.9511 28.1988 14.9034 28.4222 14.9034 28.6399C14.9034 29.011 15.035 29.3277 15.2984 29.5899C15.5606 29.8544 15.8778 29.9866 16.25 29.9866C16.4678 29.9866 16.6845 29.9444 16.9 29.8599C17.1156 29.7755 17.3067 29.6488 17.4733 29.4799L22.6686 24.2923C22.929 24.0323 23.3509 24.0324 23.6111 24.2927L23.8486 24.5302C24.109 24.7905 24.109 25.2127 23.8486 25.473L18.6533 30.6683C18.4856 30.8372 18.3595 31.0399 18.275 31.2766C18.1906 31.5133 18.1483 31.7294 18.1483 31.9249C18.1483 32.3183 18.2867 32.6355 18.5633 32.8766C18.84 33.1177 19.1533 33.2383 19.5033 33.2383M19.4933 34.9049C18.6367 34.9049 17.9033 34.5916 17.2934 33.9649C16.8519 33.5106 16.5896 32.9794 16.5067 32.3713C16.4536 31.9825 16.1486 31.6529 15.7617 31.5869C15.1338 31.4798 14.5905 31.2164 14.1317 30.7966C13.6526 30.3574 13.3654 29.7862 13.2701 29.0831C13.2191 28.7076 12.919 28.4006 12.544 28.3467C11.8367 28.2449 11.2565 27.9649 10.8033 27.5066C10.361 27.0593 10.0984 26.5063 10.0154 25.8478C9.96727 25.4652 9.6642 25.1477 9.28338 25.0873C8.66329 24.9889 8.12439 24.7442 7.66668 24.3533C7.04335 23.8222 6.73168 23.0822 6.73168 22.1333C6.73168 21.7055 6.81446 21.2777 6.98002 20.8499C7.14557 20.421 7.39002 20.0444 7.71335 19.7199L15.6286 11.8141C15.889 11.554 16.3109 11.5541 16.5711 11.8144L20.4033 15.6466C20.5445 15.7944 20.7189 15.916 20.9267 16.0116C21.1345 16.1072 21.3684 16.1544 21.6283 16.1533C21.985 16.1533 22.3 16.0288 22.5733 15.7799C22.8467 15.531 22.9839 15.2066 22.985 14.8066C22.985 14.5466 22.9372 14.3133 22.8417 14.1066C22.7461 13.8988 22.625 13.7244 22.4783 13.5833L16.745 7.84993C16.3317 7.43104 15.9022 7.12382 15.4567 6.92826C15.0111 6.73271 14.5233 6.63493 13.9934 6.63493C13.47 6.63493 12.9945 6.73271 12.5667 6.92826C12.14 7.12382 11.7172 7.43104 11.2983 7.84993L6.22502 12.9333C5.86724 13.2888 5.57835 13.7138 5.35835 14.2083C5.13835 14.7016 5.02168 15.211 5.00835 15.7366C4.99724 16.1133 5.02946 16.4749 5.10502 16.8216C5.1444 17.0023 5.19648 17.1776 5.26123 17.3475C5.36694 17.6247 5.32729 17.946 5.11747 18.1558L4.80011 18.4732C4.49722 18.7761 3.99094 18.717 3.82489 18.3221C3.7194 18.0713 3.62833 17.8044 3.55168 17.5216C3.3939 16.9394 3.32113 16.3449 3.33335 15.7383C3.34668 14.9805 3.49835 14.2555 3.78835 13.5633C4.07835 12.871 4.4939 12.2538 5.03502 11.7116L10.0767 6.66993C10.6578 6.09437 11.2728 5.6666 11.9217 5.3866C12.5706 5.10771 13.2722 4.96826 14.0267 4.96826C14.7811 4.96826 15.4767 5.10826 16.1134 5.38826C16.7511 5.66715 17.3578 6.09437 17.9333 6.66993L18.9122 7.64992C19.1724 7.91042 19.5945 7.91066 19.855 7.65046L20.8367 6.66993C21.4178 6.09437 22.0272 5.6666 22.665 5.3866C23.3028 5.10771 23.9989 4.96826 24.7534 4.96826C25.5078 4.96826 26.2095 5.10826 26.8583 5.38826C27.5061 5.66715 28.1172 6.09437 28.6917 6.66993L34.9017 12.8783C35.4761 13.4527 35.9195 14.0977 36.2317 14.8133C36.5439 15.5288 36.6995 16.2638 36.6983 17.0183C36.6983 17.7738 36.5428 18.4699 36.2317 19.1066C35.9206 19.7433 35.4772 20.3499 34.9017 20.9266L21.9067 33.9099C21.5611 34.2566 21.1845 34.5088 20.7767 34.6666C20.37 34.8244 19.9422 34.9033 19.4933 34.9033" fill="black"/>
</svg>
