<svg width="40" height="40" viewBox="0 0 40 40" fill="none" xmlns="http://www.w3.org/2000/svg">
<path d="M30.3164 5.35156C30.7754 5.35166 31.2036 5.54752 31.5098 5.87598C31.8141 6.20263 31.9764 6.63491 31.9766 7.07422V27.2539C31.9765 27.3302 31.9643 27.4038 31.9443 27.4736C31.9643 27.5435 31.9765 27.6171 31.9766 27.6934C31.9766 28.135 31.6184 28.4939 31.1768 28.4941H11.1025C11.0993 28.4941 11.096 28.4932 11.0928 28.4932C10.567 28.496 10.0505 28.721 9.66016 29.1396C9.2657 29.563 9.03533 30.1492 9.03516 30.7705C9.03516 31.3918 9.26578 31.9779 9.66016 32.4014C10.0529 32.8228 10.5733 33.0477 11.1025 33.0479C11.1081 33.0479 11.1136 33.0487 11.1191 33.0488H31.1768C31.6183 33.0491 31.9764 33.407 31.9766 33.8486C31.9766 34.2903 31.6184 34.6482 31.1768 34.6484H11.1025L10.917 34.6436C9.9945 34.5942 9.13018 34.1789 8.49023 33.4922C7.80932 32.7614 7.43555 31.7813 7.43555 30.7705V9.22852C7.43568 8.2179 7.80945 7.23847 8.49023 6.50781C9.17286 5.77535 10.1111 5.35169 11.1025 5.35156H30.3164ZM11.1025 6.95117C10.5734 6.9513 10.0528 7.17638 9.66016 7.59766C9.26566 8.02102 9.03529 8.60717 9.03516 9.22852V27.5693C9.63589 27.1358 10.354 26.8937 11.1025 26.8936H30.377V7.07422C30.3768 7.02431 30.3569 6.9862 30.3389 6.9668C30.3306 6.95807 30.3237 6.95463 30.3203 6.95312C30.3189 6.95248 30.318 6.95142 30.3174 6.95117H11.1025ZM24.4883 10.0039C26.0733 10.0844 27.334 11.395 27.334 13L27.3301 13.1543C27.2524 14.6882 26.0222 15.9182 24.4883 15.9961L24.334 16H15.667C14.0101 16 12.667 14.6569 12.667 13C12.667 11.3431 14.0101 10 15.667 10H24.334L24.4883 10.0039ZM15.667 11.5996C14.8938 11.5996 14.2666 12.2268 14.2666 13C14.2666 13.7732 14.8938 14.4004 15.667 14.4004H24.334C25.107 14.4002 25.7334 13.7731 25.7334 13C25.7334 12.2269 25.107 11.5998 24.334 11.5996H15.667Z" fill="black"/>
</svg>
