<svg width="40" height="40" viewBox="0 0 40 40" fill="none" xmlns="http://www.w3.org/2000/svg">
<path d="M12.167 36.5L20.0003 29.3333L27.167 36.5M20.0003 4V7.33333M15.0003 18.6667V23.3333M20.0003 16V23.3333M25.0003 12.6667V23.3333M35.3337 8.33333V28.3333C35.3337 28.4647 35.3078 28.5947 35.2575 28.716C35.2073 28.8373 35.1336 28.9476 35.0408 29.0404C34.9479 29.1333 34.8377 29.207 34.7163 29.2572C34.595 29.3075 34.465 29.3333 34.3337 29.3333H5.66699C5.40178 29.3333 5.14742 29.228 4.95989 29.0404C4.77235 28.8529 4.66699 28.5986 4.66699 28.3333V8.33333C4.66699 8.06812 4.77235 7.81376 4.95989 7.62623C5.14742 7.43869 5.40178 7.33333 5.66699 7.33333H34.3337C34.5989 7.33333 34.8532 7.43869 35.0408 7.62623C35.2283 7.81376 35.3337 8.06812 35.3337 8.33333Z" stroke="black" stroke-width="1.62" stroke-linecap="round" stroke-linejoin="round"/>
</svg>
