<svg width="40" height="40" viewBox="0 0 40 40" fill="none" xmlns="http://www.w3.org/2000/svg">
<path d="M16.9423 18.9045L6.14575 29.7011C5.86178 29.9847 5.63651 30.3216 5.48281 30.6923C5.32911 31.0631 5.25 31.4605 5.25 31.8619C5.25 32.2633 5.32911 32.6607 5.48281 33.0315C5.63651 33.4023 5.86178 33.7391 6.14575 34.0227C6.7185 34.5953 7.4952 34.917 8.30506 34.917C9.11492 34.917 9.89162 34.5953 10.4644 34.0227L21.2609 23.2231M27.8503 23.7805L33.7724 29.7026C34.3449 30.2753 34.6666 31.052 34.6666 31.8619C34.6666 32.6718 34.3449 33.4485 33.7724 34.0212C33.1996 34.5938 32.4229 34.9154 31.6131 34.9154C30.8032 34.9154 30.0265 34.5938 29.4538 34.0212L19.972 24.541M11.8769 11.7226L8.63491 12.8007L5.39748 7.40247L7.55679 5.24316L12.9566 8.48213L11.8769 11.7226ZM11.8769 11.7226L16.1986 16.0443" stroke="black" stroke-width="1.61692" stroke-linecap="round" stroke-linejoin="round"/>
<path d="M16.9419 18.9047C15.653 15.6169 15.905 11.3028 18.5622 8.64571C21.2193 5.98857 26.1213 5.40675 28.8196 7.02699L24.1773 11.6694C22.7581 13.6322 22.7542 14.6696 23.7451 16.4201C25.6004 17.1652 26.6406 17.2151 28.4959 15.9895L33.1382 11.3456C34.76 14.0455 34.1767 18.9475 31.5195 21.6031C28.8624 24.2602 24.5499 24.5122 21.2621 23.2233" stroke="black" stroke-width="1.61692" stroke-linecap="round" stroke-linejoin="round"/>
</svg>
