<svg width="40" height="40" viewBox="0 0 40 40" fill="none" xmlns="http://www.w3.org/2000/svg">
<path d="M19 12.5H22.5M19 17.5H22.5M10 22.5H22.5M10 27.5H22.5M27.5 12.5H33.125C34.16 12.5 35 13.34 35 14.375V30C35 30.9946 34.6049 31.9484 33.9016 32.6516C33.1984 33.3549 32.2446 33.75 31.25 33.75M27.5 12.5V30C27.5 30.9946 27.8951 31.9484 28.5983 32.6516C29.3016 33.3549 30.2554 33.75 31.25 33.75M27.5 12.5V8.125C27.5 7.09 26.66 6.25 25.625 6.25H6.875C5.84 6.25 5 7.09 5 8.125V30C5 30.9946 5.39509 31.9484 6.09835 32.6516C6.80161 33.3549 7.75544 33.75 8.75 33.75H31.25M10 12.5H16V17.5H10V12.5Z" stroke="black" stroke-width="1.5" stroke-linecap="round" stroke-linejoin="round"/>
</svg>
