<svg width="40" height="40" viewBox="0 0 40 40" fill="none" xmlns="http://www.w3.org/2000/svg">
<path d="M20.0033 36.6699C29.2083 36.6699 36.6717 29.2066 36.6717 19.9999C36.6717 10.7949 29.2083 3.33158 20.0033 3.33158C10.7967 3.33158 3.33334 10.7949 3.33334 19.9999C3.33334 29.2066 10.7967 36.6699 20.0033 36.6699ZM20 22.5016C19.6685 22.5016 19.3505 22.3699 19.1161 22.1355C18.8817 21.901 18.75 21.5831 18.75 21.2516V12.9183C18.75 12.5867 18.8817 12.2688 19.1161 12.0344C19.3505 11.7999 19.6685 11.6683 20 11.6683C20.3315 11.6683 20.6495 11.7999 20.8839 12.0344C21.1183 12.2688 21.25 12.5867 21.25 12.9183V21.2516C21.25 21.5831 21.1183 21.901 20.8839 22.1355C20.6495 22.3699 20.3315 22.5016 20 22.5016ZM20 25.0016C20.442 25.0016 20.866 25.1772 21.1785 25.4897C21.4911 25.8023 21.6667 26.2262 21.6667 26.6683C21.6667 27.1103 21.4911 27.5342 21.1785 27.8468C20.866 28.1593 20.442 28.3349 20 28.3349C19.558 28.3349 19.1341 28.1593 18.8215 27.8468C18.5089 27.5342 18.3333 27.1103 18.3333 26.6683C18.3333 26.2262 18.5089 25.8023 18.8215 25.4897C19.1341 25.1772 19.558 25.0016 20 25.0016Z" fill="#7779FF"/>
</svg>
