<svg width="20" height="20" viewBox="0 0 20 20" fill="none" xmlns="http://www.w3.org/2000/svg">
<path d="M15.5428 6.8683C15.6064 6.80392 15.6813 6.75358 15.763 6.72018C15.8448 6.68677 15.9319 6.67094 16.0194 6.67359C16.1069 6.67624 16.193 6.69732 16.2729 6.73562C16.3528 6.77393 16.4248 6.82871 16.4849 6.89684C16.545 6.96497 16.592 7.04512 16.6232 7.1327C16.6544 7.22028 16.6692 7.31358 16.6667 7.40728C16.6643 7.50098 16.6446 7.59325 16.6088 7.6788C16.573 7.76435 16.5219 7.84152 16.4583 7.9059L10.4618 13.9717C10.3381 14.097 10.1743 14.1667 10.0041 14.1667C9.83383 14.1667 9.67005 14.097 9.54634 13.9717L3.54919 7.9059C3.48419 7.84195 3.4317 7.76479 3.39477 7.67893C3.35784 7.59306 3.33721 7.50019 3.33408 7.40571C3.33095 7.31123 3.34537 7.21702 3.37652 7.12857C3.40766 7.04011 3.45491 6.95916 3.51551 6.89042C3.57611 6.82169 3.64886 6.76653 3.72953 6.72816C3.8102 6.68979 3.89718 6.66898 3.98543 6.66692C4.07367 6.66486 4.16142 6.6816 4.24358 6.71617C4.32573 6.75074 4.40065 6.80245 4.46399 6.8683L10.0041 12.4717L15.5428 6.8683Z" fill="#737373"/>
</svg>
