<svg width="18" height="18" viewBox="0 0 18 18" fill="none" xmlns="http://www.w3.org/2000/svg">
<path d="M2.25 9C2.25 9.88642 2.42459 10.7642 2.76381 11.5831C3.10303 12.4021 3.60023 13.1462 4.22703 13.773C4.85382 14.3998 5.59794 14.897 6.41689 15.2362C7.23583 15.5754 8.11358 15.75 9 15.75C9.88642 15.75 10.7642 15.5754 11.5831 15.2362C12.4021 14.897 13.1462 14.3998 13.773 13.773C14.3998 13.1462 14.897 12.4021 15.2362 11.5831C15.5754 10.7642 15.75 9.88642 15.75 9C15.75 8.11358 15.5754 7.23583 15.2362 6.41689C14.897 5.59794 14.3998 4.85382 13.773 4.22703C13.1462 3.60023 12.4021 3.10303 11.5831 2.76381C10.7642 2.42459 9.88642 2.25 9 2.25C8.11358 2.25 7.23583 2.42459 6.41689 2.76381C5.59794 3.10303 4.85382 3.60023 4.22703 4.22703C3.60023 4.85382 3.10303 5.59794 2.76381 6.41689C2.42459 7.23583 2.25 8.11358 2.25 9Z" stroke="#737373" stroke-width="0.75" stroke-linecap="round" stroke-linejoin="round"/>
<path d="M11.1 6.75C10.9641 6.51432 10.7667 6.32003 10.5289 6.18791C10.2911 6.0558 10.0219 5.99085 9.75 6H8.25C7.85218 6 7.47064 6.15804 7.18934 6.43934C6.90804 6.72064 6.75 7.10218 6.75 7.5C6.75 7.89782 6.90804 8.27936 7.18934 8.56066C7.47064 8.84196 7.85218 9 8.25 9H9.75C10.1478 9 10.5294 9.15804 10.8107 9.43934C11.092 9.72064 11.25 10.1022 11.25 10.5C11.25 10.8978 11.092 11.2794 10.8107 11.5607C10.5294 11.842 10.1478 12 9.75 12H8.25C7.97812 12.0092 7.70887 11.9442 7.47106 11.8121C7.23326 11.68 7.03586 11.4857 6.9 11.25M9 5.25V12.75" stroke="#737373" stroke-width="0.75" stroke-linecap="round" stroke-linejoin="round"/>
</svg>
