<svg width="18" height="18" viewBox="0 0 18 18" fill="none" xmlns="http://www.w3.org/2000/svg">
<path d="M16.3125 9C16.3125 10.9394 15.5421 12.7994 14.1707 14.1707C12.7994 15.5421 10.9394 16.3125 9 16.3125M16.3125 9C16.3125 7.0606 15.5421 5.20064 14.1707 3.82928C12.7994 2.45792 10.9394 1.6875 9 1.6875M16.3125 9C16.3125 10.8641 13.0387 12.375 9 12.375C4.96125 12.375 1.6875 10.8641 1.6875 9M16.3125 9C16.3125 7.13587 13.0387 5.625 9 5.625C4.96125 5.625 1.6875 7.13587 1.6875 9M9 16.3125C7.0606 16.3125 5.20064 15.5421 3.82928 14.1707C2.45792 12.7994 1.6875 10.9394 1.6875 9M9 16.3125C10.8641 16.3125 12.375 13.0387 12.375 9C12.375 4.96125 10.8641 1.6875 9 1.6875M9 16.3125C7.13587 16.3125 5.625 13.0387 5.625 9C5.625 4.96125 7.13587 1.6875 9 1.6875M9 1.6875C7.0606 1.6875 5.20064 2.45792 3.82928 3.82928C2.45792 5.20064 1.6875 7.0606 1.6875 9" stroke="#737373" stroke-width="0.825"/>
</svg>
