<svg width="322" height="240" viewBox="0 0 322 240" fill="none" xmlns="http://www.w3.org/2000/svg">
<path d="M191.531 0L185.737 32.622C185.707 34.9308 185.722 37.91 186.05 40.8147C187.733 55.9936 197.37 64.7077 212.49 64.7077H292.272C300.882 64.7077 305.604 64.7077 307.674 63.0542C309.745 61.4008 310.728 56.6043 312.352 48.6648C314.735 36.9567 316.984 25.4273 319.353 13.2126C320.187 8.89284 321.036 4.52835 321.9 0.134063C321.006 0.0446876 320.351 0 319.725 0C287.759 0 255.822 0 223.87 0H191.516H191.531Z" fill="black"/>
<path d="M77.2796 151.804C99.6979 151.431 121.952 151.238 147.097 151.208L154.172 110.751C151.163 95.5273 139.783 85.0257 123.621 82.5977H30.5363C29.5085 90.135 29.3 97.7914 29.8809 105.418C32.294 136.685 48.2624 152.31 77.2647 151.804H77.2796Z" fill="black"/>
<path d="M166.58 42.8703L174.088 0H150.761C135.835 0 120.91 0 105.984 0C84.6681 0 67.1356 9.19075 53.8783 27.3041C45.0153 39.3996 38.5058 52.0164 34.4988 64.8566H141.585C152.042 60.1644 160.458 52.7761 166.595 42.8703H166.58Z" fill="black"/>
<path d="M15.596 174.505C12.9147 174.505 12.3785 174.997 11.8273 177.961C9.90576 188.358 7.80544 198.89 5.7796 209.093C4.79647 214.054 3.81334 218.999 2.84511 223.959C2.05563 227.996 1.29594 232.033 0.521356 236.234L0 239.064C0.968232 239.138 1.7875 239.198 2.56209 239.198H37.6717C69.0126 239.228 100.368 239.243 131.724 239.228L143.03 174.609C100.845 174.609 60.0304 174.58 15.6556 174.52H15.6258L15.596 174.505Z" fill="black"/>
<path d="M248.746 87.7665C244.709 87.7516 240.598 87.841 236.621 87.9453C228.309 88.1389 219.714 88.3474 211.268 87.5133C198.1 86.2322 187.628 91.3117 178.304 103.526C175.101 107.712 172.703 112.777 170.573 117.29L164.555 151.193C176.174 151.193 188.046 151.238 200.513 151.283H201.556L201.765 151.461C204.535 152.132 208.155 154.858 208.095 161.859C208.036 169.009 204.401 172.435 202.584 173.701L202.137 174.595H160.414L148.959 239.183C171.407 239.153 193.855 239.123 216.303 239.034C223.811 239.004 231.005 237.768 237.083 235.474C266.845 224.198 278.642 197.549 288.176 171.198C288.176 171.198 289.427 167.385 290.216 161.814C290.812 157.658 291.319 152.564 291.572 149.897L291.721 148.229C292.302 138.561 292.332 127.062 288.116 115.726C280.966 96.4806 268.841 87.8559 248.776 87.7516L248.746 87.7665Z" fill="black"/>
</svg>
