<svg width="1098" height="155" viewBox="0 0 1098 155" fill="none" xmlns="http://www.w3.org/2000/svg">
<path d="M118.961 6.53638L115.362 26.7809C115.344 28.2138 115.353 30.0626 115.557 31.8652C116.602 41.2849 122.588 46.6927 131.979 46.6927H181.532C186.88 46.6927 189.813 46.6927 191.099 45.6666C192.385 44.6405 192.995 41.6639 194.004 36.7368C195.484 29.471 196.881 22.316 198.352 14.7359C198.87 12.0551 199.398 9.34658 199.934 6.61957C199.379 6.56411 198.972 6.53638 198.584 6.53638C178.729 6.53638 158.893 6.53638 139.047 6.53638H118.952H118.961Z" fill="white"/>
<path d="M47.999 100.743C61.9232 100.512 75.7456 100.392 91.3629 100.373L95.7575 75.2662C93.8886 65.8188 86.8202 59.3017 76.7818 57.7949H18.9664C18.328 62.4724 18.1985 67.2239 18.5593 71.9569C20.0581 91.3602 29.9762 101.057 47.9897 100.743H47.999Z" fill="white"/>
<path d="M103.464 33.1409L108.127 6.53638H93.6389C84.3685 6.53638 75.098 6.53638 65.8276 6.53638C52.588 6.53638 41.6985 12.24 33.4643 23.4808C27.9594 30.987 23.9163 38.8167 21.4275 46.7851H87.9397C94.4346 43.8732 99.6619 39.2882 103.474 33.1409H103.464Z" fill="white"/>
<path d="M9.68679 114.831C8.02144 114.831 7.68837 115.136 7.34604 116.975C6.15254 123.428 4.84802 129.963 3.58975 136.296C2.97913 139.374 2.3685 142.443 1.76712 145.521C1.27677 148.026 0.804919 150.531 0.323818 153.138L0 154.895C0.601376 154.941 1.11023 154.978 1.59133 154.978H23.3982C42.8643 154.996 62.3396 155.006 81.815 154.996L88.8372 114.896C62.6357 114.896 37.2853 114.877 9.72379 114.84H9.70529L9.68679 114.831Z" fill="white"/>
<path d="M154.498 61.0026C151.991 60.9933 149.437 61.0488 146.967 61.1135C141.805 61.2337 136.466 61.3631 131.22 60.8454C123.042 60.0504 116.538 63.2027 110.746 70.7828C108.757 73.3804 107.267 76.5234 105.944 79.3244L102.206 100.364C109.423 100.364 116.797 100.392 124.541 100.419H125.188L125.318 100.53C127.039 100.946 129.287 102.638 129.25 106.983C129.213 111.42 126.955 113.546 125.827 114.332L125.549 114.886H99.6343L92.5195 154.969C106.462 154.95 120.405 154.932 134.348 154.876C139.011 154.858 143.479 154.091 147.254 152.667C165.739 145.669 173.067 129.131 178.988 112.779C178.988 112.779 179.765 110.412 180.256 106.955C180.626 104.376 180.94 101.214 181.098 99.5597L181.19 98.5243C181.551 92.5249 181.569 85.3885 178.951 78.3537C174.51 66.4104 166.979 61.058 154.517 60.9933L154.498 61.0026Z" fill="white"/>
<path d="M237.941 104.576H276.495C278.228 119.547 288.407 125.785 306.817 125.785C319.382 125.785 331.724 121.418 331.724 110.196C331.724 98.3472 319.159 95.8506 297.943 90.8574C271.079 84.8261 242.705 76.9244 242.705 45.7377C242.705 14.551 269.56 0 304.208 0C338.856 0 363.763 14.551 365.282 45.7377H327.819C326.3 34.3012 317.211 27.8579 302.912 27.8579C289.489 27.8579 280.606 33.469 280.606 41.791C280.606 52.1893 292.518 54.6776 315.692 59.6708C344.495 66.1141 370.483 74.642 370.483 106.455C370.483 138.268 342.761 154.895 307.032 154.895C265.878 154.895 238.808 137.427 237.941 104.576Z" fill="white"/>
<path d="M375.779 2.70264H414.109V56.548L467.381 2.70264H512.861L453.52 62.3734L516.328 151.36H471.716L427.103 87.1167L414.109 100.218V151.36H375.779V2.70264Z" fill="white"/>
<path d="M518.362 2.70264H556.692V151.36H518.362V2.70264Z" fill="white"/>
<path d="M569.335 2.70264H607.665V120.174H677.184V151.36H569.335V2.70264Z" fill="white"/>
<path d="M683.106 2.70264H721.436V120.174H790.956V151.36H683.106V2.70264Z" fill="white"/>
<path d="M829.372 98.9652V2.70264H867.702V100.209C867.702 114.76 875.495 124.532 894.342 124.532C912.1 124.532 920.545 114.134 920.545 99.5832V2.70264H958.875V98.9652C958.875 133.266 937.436 154.063 894.334 154.063C851.232 154.063 829.363 133.687 829.363 98.9652H829.372Z" fill="white"/>
<path d="M970.436 2.70264H1040.17C1059.01 2.70264 1072.87 7.6958 1082.41 16.4215C1092.37 25.3614 1098 38.042 1098 53.0133C1098 81.4974 1077.43 101.668 1045.59 101.668H1009.43V151.36H970.445V2.70264H970.436ZM1037.79 72.5575C1051.65 72.5575 1059.45 64.6557 1059.45 52.8073C1059.45 40.9588 1051.43 33.6833 1037.79 33.6833H1009.42V72.5657H1037.79V72.5575Z" fill="white"/>
</svg>
